<?xml version="1.0" encoding="UTF-8" standalone="no"?>
<!-- Created with Inkscape (http://www.inkscape.org/) -->

<svg
   width="120"
   height="120"
   viewBox="0 0 31.75 31.75"
   version="1.1"
   id="svg5"
   inkscape:version="1.1 (c4e8f9ed74, 2021-05-24)"
   sodipodi:docname="menuLogoWhite.svg"
   xmlns:inkscape="http://www.inkscape.org/namespaces/inkscape"
   xmlns:sodipodi="http://sodipodi.sourceforge.net/DTD/sodipodi-0.dtd"
   xmlns="http://www.w3.org/2000/svg"
   xmlns:svg="http://www.w3.org/2000/svg">
  <sodipodi:namedview
     id="namedview7"
     pagecolor="#505050"
     bordercolor="#ffffff"
     borderopacity="1"
     inkscape:pageshadow="0"
     inkscape:pageopacity="0"
     inkscape:pagecheckerboard="1"
     inkscape:document-units="px"
     showgrid="false"
     inkscape:zoom="6.0333333"
     inkscape:cx="50.801105"
     inkscape:cy="53.038674"
     inkscape:window-width="1882"
     inkscape:window-height="1023"
     inkscape:window-x="19"
     inkscape:window-y="38"
     inkscape:window-maximized="1"
     inkscape:current-layer="layer1" />
  <defs
     id="defs2" />
  <g
     inkscape:label="Capa 1"
     inkscape:groupmode="layer"
     id="layer1">
    <path
       id="rect1343"
       style="fill:#ffffff;fill-opacity:1;stroke-width:0.138362;stroke:none"
       d="M 2.1166666,21.695834 H 29.633333 c 1.172634,0 2.116667,0.944033 2.116667,2.116667 0,1.172633 -0.944033,2.116665 -2.116667,2.116665 H 2.1166666 C 0.94403328,25.929166 0,24.985134 0,23.812501 0,22.639867 0.94403328,21.695834 2.1166666,21.695834 Z m 0,-7.9375 H 29.633333 c 1.172634,0 2.116667,0.944033 2.116667,2.116667 0,1.172632 -0.944033,2.116665 -2.116667,2.116665 H 2.1166666 C 0.94403328,17.991666 0,17.047634 0,15.875001 0,14.702367 0.94403328,13.758334 2.1166666,13.758334 Z m 0,-7.9375005 H 29.633333 c 1.172634,0 2.116667,0.9440333 2.116667,2.1166666 0,1.1726332 -0.944033,2.1166669 -2.116667,2.1166669 H 2.1166666 C 0.94403328,10.054167 0,9.1101333 0,7.9375001 0,6.7648668 0.94403328,5.8208335 2.1166666,5.8208335 Z" />
  </g>
</svg>
